#!OML:ASF Y:\EmotionMaleHayes\Project 1\Capture day 1\Session 1\Male1.ASF
:FULLY-SPECIFIED
:DEGREES
966
root 10.7905 16.6428 -2.7611 -362.657 200.402 -0.311465
lowerback 11.4543 5.05113 -6.4391
upperback 3.96862 5.2844 -3.8074
thorax -2.47154 2.37407 -1.08084
lowerneck -19.7057 10.0885 12.5416
upperneck 22.2132 11.9659 -7.63313
head 11.79 5.46686 -2.88573
rclavicle -3.73715e-014 4.6118e-014
rhumerus -43.9921 36.8168 -101.088
rradius 52.2263
rwrist -14.2991
rhand -26.6756 -32.1729
rfingers 7.12502
rthumb -0.106779 -62.1527
lclavicle -3.73715e-014 4.6118e-014
lhumerus -37.9871 -20.6315 84.3415
lradius 43.2126
lwrist 10.788
lhand -25.2372 -21.7313
lfingers 7.12502
lthumb 1.28246 8.24458
rfemur -14.4178 0.00419585 13.3114
rtibia 69.2673
rfoot -1.56421 -6.8237
rtoes 26.6381
lfemur -12.3771 -4.15787 -29.5104
ltibia 27.809
lfoot -14.7143 5.6269
ltoes 9.7415
967
root 10.621 16.7307 -2.98538 -362.653 201.823 -0.867758
lowerback 11.2943 4.94455 -6.80925
upperback 4.08534 5.10748 -3.92215
thorax -2.27779 2.27355 -0.953943
lowerneck -19.8466 9.99801 12.4038
upperneck 22.3348 11.8633 -7.599
head 11.8392 5.40824 -2.86716
rclavicle -4.17448e-014 -1.59028e-014
rhumerus -45.1514 35.2688 -100.383
rradius 49.6698
rwrist -13.6204
rhand -26.5586 -31.8569
rfingers 7.12502
rthumb 0.00622794 -61.8366
lclavicle -4.17448e-014 -1.59028e-014
lhumerus -36.5382 -21.8537 84.2206
lradius 46.0234
lwrist 11.9532
lhand -24.9916 -21.7848
lfingers 7.12502
lthumb 1.51971 8.18957
rfemur -15.5602 0.113662 12.4548
rtibia 67.7273
rfoot -2.54516 -5.95017
rtoes 25.0593
lfemur -9.98007 -5.14001 -30.7545
ltibia 26.0396
lfoot -15.4827 4.73635
ltoes 17.8992
968
root 10.46 16.8142 -3.20853 -362.703 203.239 -1.24475
lowerback 11.2495 4.81537 -7.18839
upperback 4.179 4.89824 -3.93536
thorax -2.17737 2.16084 -0.723129
lowerneck -20.2471 9.91317 12.3491
upperneck 22.6077 11.736 -7.61991
head 12.0041 5.33035 -2.87849
rclavicle -7.95139e-016 5.56597e-014
rhumerus -46.4257 33.8953 -99.5791
rradius 47.503
rwrist -13.0146
rhand -26.1412 -31.5791
rfingers 7.12502
rthumb 0.409337 -61.5584
lclavicle -7.95139e-016 5.56597e-014
lhumerus -35.1318 -23.0529 84.1365
lradius 48.7931
lwrist 12.4773
lhand -26.4344 -22.0199
lfingers 7.12502
lthumb 0.126148 7.95982
rfemur -16.6037 0.518227 11.8601
rtibia 66.0204
rfoot -3.67859 -5.0959
rtoes 24.0352
lfemur -7.52153 -6.06822 -31.7704
ltibia 24.1399
lfoot -15.4303 4.16576
ltoes 18.3795
969
root 10.3101 16.893 -3.42824 -362.81 204.746 -1.30556
lowerback 11.3584 4.62709 -7.41682
upperback 4.12169 4.62962 -3.81951
thorax -2.31205 2.03725 -0.449732
lowerneck -20.3243 9.75712 11.9063
upperneck 22.8307 11.5933 -7.38817
head 12.0406 5.2504 -2.74969
rclavicle -1.78906e-014 9.38264e-014
rhumerus -47.9121 32.5186 -98.821
rradius 45.5032
rwrist -12.1197
rhand -25.8011 -31.9835
rfingers 7.12502
rthumb 0.737843 -61.962
lclavicle -1.78906e-014 9.38264e-014
lhumerus -33.8504 -24.0427 84.0105
lradius 51.4698
lwrist 13.114
lhand -27.3453 -22.6251
lfingers 7.12502
lthumb -0.753544 7.35334
rfemur -17.6742 0.36256 11.7999
rtibia 63.8201
rfoot -3.87253 -4.77488
rtoes 13.6861
lfemur -5.36581 -6.62769 -32.3244
ltibia 22.5011
lfoot -14.6076 3.47767
ltoes 11.687
970
root 10.1607 16.9653 -3.64753 -362.917 206.384 -1.41367
lowerback 11.5234 4.45344 -7.65907
upperback 4.00686 4.36972 -3.7245
thorax -2.53422 1.92277 -0.196574
lowerneck -20.2156 9.57353 11.7105
upperneck 23.076 11.4128 -7.38792
head 12.0812 5.14823 -2.76021
rclavicle -7.87187e-014 5.08889e-014
rhumerus -49.5114 30.972 -98.0379
rradius 43.5296
rwrist -10.8606
rhand -25.7007 -32.5081
rfingers 7.12502
rthumb 0.834823 -62.4863
lclavicle -7.87187e-014 5.08889e-014
lhumerus -32.7031 -25.3366 83.9369
lradius 54.0221
lwrist 13.7665
lhand -25.4389 -21.8519
lfingers 7.12502
lthumb 1.0877 8.12509
rfemur -18.5095 0.491245 11.4233
rtibia 61.5668
rfoot -4.67664 -4.29058
rtoes 16.6669
lfemur -3.35899 -7.11194 -32.8903
ltibia 21.159
lfoot -14.0846 2.75715
ltoes 4.76806
971
root 10.0105 17.0304 -3.8692 -362.923 208.113 -1.72651
lowerback 11.5871 4.26129 -8.09716
upperback 3.98515 4.06796 -3.6569
thorax -2.60875 1.77752 0.153752
lowerneck -20.1113 9.46659 11.6072
upperneck 23.2235 11.3442 -7.51216
head 12.1125 5.09027 -2.80956
rclavicle -3.51849e-014 3.49861e-014
rhumerus -51.1007 29.6058 -97.0471
rradius 41.9056
rwrist -9.66213
rhand -25.1909 -31.9401
rfingers 7.12502
rthumb 1.32719 -61.9157
lclavicle -3.51849e-014 3.49861e-014
lhumerus -31.3028 -26.6727 83.6841
lradius 56.4769
lwrist 14.1155
lhand -26.0162 -22.3706
lfingers 7.12502
lthumb 0.530119 7.60852
rfemur -19.3229 0.244711 10.7602
rtibia 59.3137
rfoot -5.48001 -3.8692
rtoes 17.7717
lfemur -1.33032 -7.88514 -33.7105
ltibia 19.8858
lfoot -13.9214 2.05769
ltoes 3.30437
972
root 9.85878 17.0883 -4.09354 -362.891 209.773 -1.92921
lowerback 11.5237 4.02989 -8.46859
upperback 3.99275 3.74547 -3.54414
thorax -2.57477 1.62112 0.52761
lowerneck -20.197 9.44625 11.486
upperneck 23.3981 11.3755 -7.58616
head 12.1976 5.07736 -2.81156
rclavicle 1.25632e-013 4.77083e-014
rhumerus -52.6158 28.4124 -95.8954
rradius 40.5672
rwrist -8.5476
rhand -24.3491 -31.0062
rfingers 7.12502
rthumb 2.14019 -60.9753
lclavicle 1.25632e-013 4.77083e-014
lhumerus -29.7068 -27.8751 83.2692
lradius 58.8254
lwrist 14.469
lhand -25.7902 -22.4106
lfingers 7.12502
lthumb 0.748382 7.56785
rfemur -19.7652 0.575266 10.3116
rtibia 56.4743
rfoot -6.45157 -3.90104
rtoes 18.3534
lfemur 0.670215 -8.88276 -34.4418
ltibia 18.5665
lfoot -13.9905 1.50351
ltoes 3.79227
